# xmcd
#
# Track frame offsets: 
#        150
#        16472
#        29145
#        47880
#        67462
#        85577
#        100535
#        118670
#        140775
#        158790
#        174480
#
# Disc length: 2522 seconds
#
# Revision: 1
# Processed by: cddbd v1.5.1PL2 Copyright (c) Steve Scherf et al.
# Submitted via: ExactAudioCopy v0.95b3
#
DISCID=9a09d80b
DTITLE=Ernie Hawkins - mean little poodle
DYEAR=2002
DGENRE=Blues
TTITLE0=Lightnin's Hideaway
TTITLE1=Chump Man
TTITLE2=Mean Little Poodle
TTITLE3=I Need Some Pettin'
TTITLE4=The Soul of a Man
TTITLE5=Step It Up and Go
TTITLE6=Voodoo Soup
TTITLE7=Dehlia
TTITLE8=Railroad Blues
TTITLE9=Weeping Willow
TTITLE10=Fast Fox Trot, Buck Dance
EXTD=ID3G: 0
EXTT0=
EXTT1=
EXTT2=
EXTT3=
EXTT4=
EXTT5=
EXTT6=
EXTT7=
EXTT8=
EXTT9=
EXTT10=
PLAYORDER=
